Coordinates
version=1
nRows=4
nColumns=40
inDegrees=yes

Units are S.I. units (second, meters, Newtons, ...)
If the header above contains a line with 'inDegrees', this indicates whether rotational values are in degrees (yes) or radians (no).

endheader
time	pelvis_tilt	pelvis_list	pelvis_rotation	pelvis_tx	pelvis_ty	pelvis_tz	hip_flexion_r	hip_adduction_r	hip_rotation_r	knee_angle_r	knee_angle_r_beta	ankle_angle_r	subtalar_angle_r	mtp_angle_r	hip_flexion_l	hip_adduction_l	hip_rotation_l	knee_angle_l	knee_angle_l_beta	ankle_angle_l	subtalar_angle_l	mtp_angle_l	lumbar_extension	lumbar_bending	lumbar_rotation	arm_flex_r	arm_add_r	arm_rot_r	elbow_flex_r	pro_sup_r	wrist_flex_r	wrist_dev_r	arm_flex_l	arm_add_l	arm_rot_l	elbow_flex_l	pro_sup_l	wrist_flex_l	wrist_dev_l
      9.50000000000000000000	     15.30993895850444275197	      6.51488348276049400454	   -179.13696331004885564653	      0.36650317089762707301	      0.79911192800373442857	     -0.91045442513882257618	     58.26110667624677574850	    -36.23308444216724666376	    -22.58234741322850425149	     54.47958343632784306010	      0.95084810607888747835	      0.87874785081169060064	      0.00000000000000000000	      0.00000000000000000000	     69.10163745206840246738	    -35.71854505924156342189	      2.30936311655087989081	     58.26850738158954357004	      1.01697730403135744304	      5.91776038574085472277	      0.00000000000000000000	      0.00000000000000000000	    -60.45965706047978471815	      8.04224609399055445635	      7.81821365975692206263	     55.84453240997842016213	    -12.85665104217419241195	     13.56545957063685925448	     20.77932596198296621992	     83.13017267577356506081	      0.00000000000000000000	      0.00000000000000000000	     53.80368558154043512332	     -0.55535230504048738176	      9.18852406889079631469	     21.02224585855641336707	     83.50996075693888087699	      0.00000000000000000000	      0.00000000000000000000
      9.50500000000000078160	     15.32476867167780554269	      6.49270769553444360156	   -179.02273027008257599846	      0.36662215785323332140	      0.79955954100277271124	     -0.91005543994915161221	     58.16366954730271032759	    -36.33262611832521571387	    -22.68421180738404174804	     54.36580778317735962446	      0.94886234632280441748	      0.87018259730871494462	      0.00000000000000000000	      0.00000000000000000000	     69.06701932784292807810	    -35.53458589364016972922	      2.34537572420295736819	     58.19243822313818981229	      1.01564964675716007392	      5.83422519485425628005	      0.00000000000000000000	      0.00000000000000000000	    -60.34307368973099983123	      8.15286111841508542852	      7.74861502323854622887	     55.80560466375589356858	    -12.89563839496822872377	     13.55905195264232254715	     20.78222492853210923158	     83.10123720460353524686	      0.00000000000000000000	      0.00000000000000000000	     53.74469503475897624867	     -0.53340603691626431448	      9.19558096258459833905	     21.01556751588655203022	     83.48157055385701141859	      0.00000000000000000000	      0.00000000000000000000
      9.50999999999999978684	     15.35836913588196317448	      6.55599704307376374146	   -179.21760381019876717801	      0.36673223700378099199	      0.80047945839363066067	     -0.91069009190296856815	     58.06892428017437168819	    -35.96203014605905678991	    -22.64495042053344064925	     54.08436806368648319676	      0.94395029657179940763	      0.83945975010598239407	      0.00000000000000000000	      0.00000000000000000000	     68.90946234391394398244	    -35.78987389716177602850	      2.15904676973144704633	     57.92063686218579476872	      1.01090581809713930816	      5.71628791226162302763	      0.00000000000000000000	      0.00000000000000000000	    -60.26820275803610371668	      7.99157761033324209876	      7.92102368551605628966	     55.70013352841327503029	    -12.94046458571011193328	     13.58163484784139996009	     20.79539770874579929227	     83.13785314615422805673	      0.00000000000000000000	      0.00000000000000000000	     53.69978178713630967422	     -0.51842554507199845037	      9.20783136650895528419	     21.03110365268101489278	     83.52205083261993934229	      0.00000000000000000000	      0.00000000000000000000
      9.51500000000000056843	     15.36315711268293426883	      6.54867425201654729250	   -179.21583266008767054700	      0.36680744808401261059	      0.80122982587602464832	     -0.91069236236756456737	     57.96419693297519160069	    -35.87889712101380013110	    -22.63797324574815306164	     53.88263497839511728671	      0.94042939002325853792	      0.76390963892930052737	      0.00000000000000000000	      0.00000000000000000000	     68.76202198779532182016	    -35.77235441330745402411	      2.05691671205176129789	     57.72834156622277390625	      1.00754963204648761987	      5.66407557283945717330	      0.00000000000000000000	      0.00000000000000000000	    -60.18253683755702354574	      8.00438866155193196050	      7.93095321480835035999	     55.59644604906233666952	    -12.97231034915198399915	     13.59005103890792653942	     20.84627448523224302335	     83.14251003451730070992	      0.00000000000000000000	      0.00000000000000000000	     53.66014195373922746057	     -0.49269566190904767744	      9.23873259184688677692	     21.02108857275521813790	     83.52188869336605137050	      0.00000000000000000000	      0.00000000000000000000
